<svg class="diagram-root" style="background: #f5f6f6" xmlns="http://www.w3.org/2000/svg" xmlns:xlink="http://www.w3.org/1999/xlink"><style>.diagram-root { font-family: "Helvetica Neue", sans-serif; font-size: 12px; } .t { overflow: visible; } .t-bg { y: 40; fill: #fff;   } .th { fill: #005aa0;   } .tht { fill: #fff; font-size: 14px;  } .tf { fill: #323c46; overflow: visible; } .tf.pk { fill: #005aa0; font-weight: bold; } .tf.fk { font-weight: bold; } .ty { fill: #adb1b5; font-weight: normal; text-anchor: end; } .r { fill: transparent; stroke: #c3c3c3; stroke-width: 1; } .l { stroke: 1; } .i { fill: #c2c7ce; stroke: #c2c7ce; } .i.ix { fill: #afb3b6; stroke: #000; } .fa { fill: transparent; overflow: visible; } .fa .bg.hover { fill: #f7f7f7; } .c { cy: 12; r: 4; stroke: #d2d2dc; fill: #d2d2dc; } .hr { fill: transparent; stroke: #323c46; stroke-opacity: 0.035; stroke-width: 13; } .dc { stroke: #fa5a3c; fill: #fa5a3c; } .x { stroke: white; stroke-width: 1; } .hl .th { fill: #1b9bff; } .hl .tht {  } .fhl .bg { fill: #e7f4ff; } .fhls .bg {  } .r.hl { stroke: #1b9bff; } .dim { opacity: 0.25; }</style><g class="drawing-wrapper" transform="translate(-32.4488888888889, 24.443333333333328) scale(1,1)"><g class="rs"><path d="M 219.83 270.33000000000004 m -1, 0 a 1,1 0 1,0 2,0 a 1,1 0 1,0 -2,0 M 219.83 270.33000000000004 m -0.5, 0 a 0.5,0.5 0 1,0 1,0 a 0.5,0.5 0 1,0 -1,0  M219.83 270.33000000000004 L219.83 270.33000000000004 231.83 270.33000000000004 M225.83 276.33000000000004 L225.83 276.33000000000004 225.83 264.33000000000004 M231.83 270.33000000000004 Q 253.93 270.33000000000004, 276.03 328.11 T 320.22 385.89 M 332.22 385.89 m -1, 0 a 1,1 0 1,0 2,0 a 1,1 0 1,0 -2,0 M 332.22 385.89 m -0.5, 0 a 0.5,0.5 0 1,0 1,0 a 0.5,0.5 0 1,0 -1,0  M332.22 385.89 L332.22 385.89 320.22 385.89 M326.22 391.89 L326.22 391.89 326.22 379.89" id="h2135332792" class="r"></path><path d="M 497.6 385.89 m -1, 0 a 1,1 0 1,0 2,0 a 1,1 0 1,0 -2,0 M 497.6 385.89 m -0.5, 0 a 0.5,0.5 0 1,0 1,0 a 0.5,0.5 0 1,0 -1,0  M497.6 385.89 L497.6 385.89 509.6 385.89 M503.6 391.89 L503.6 391.89 503.6 379.89 M509.6 385.89 Q 537.95 385.89, 566.3 309.23 T 623 232.56 M 635 232.56 m -1, 0 a 1,1 0 1,0 2,0 a 1,1 0 1,0 -2,0 M 635 232.56 m -0.5, 0 a 0.5,0.5 0 1,0 1,0 a 0.5,0.5 0 1,0 -1,0  M635 232.56 L635 232.56 623 232.56 M629 238.56 L629 238.56 629 226.56" id="h3213379939" class="r"></path><path d="M 476.04 162.56 m -1, 0 a 1,1 0 1,0 2,0 a 1,1 0 1,0 -2,0 M 476.04 162.56 m -0.5, 0 a 0.5,0.5 0 1,0 1,0 a 0.5,0.5 0 1,0 -1,0  M476.04 162.56 L476.04 162.56 488.04 162.56 M 476.04 168.56 m -1, 0 a 1,1 0 1,0 2,0 a 1,1 0 1,0 -2,0 M 476.04 168.56 m -0.5, 0 a 0.5,0.5 0 1,0 1,0 a 0.5,0.5 0 1,0 -1,0  M476.04 168.56 L476.04 168.56 483.04 162.56 476.04 156.56 M 476.04 156.56 m -1, 0 a 1,1 0 1,0 2,0 a 1,1 0 1,0 -2,0 M 476.04 156.56 m -0.5, 0 a 0.5,0.5 0 1,0 1,0 a 0.5,0.5 0 1,0 -1,0  M488.04 162.56 Q 521.78 162.56, 555.52 197.56 T 623 232.56 M 635 232.56 m -1, 0 a 1,1 0 1,0 2,0 a 1,1 0 1,0 -2,0 M 635 232.56 m -0.5, 0 a 0.5,0.5 0 1,0 1,0 a 0.5,0.5 0 1,0 -1,0  M635 232.56 L635 232.56 623 232.56 M629 238.56 L629 238.56 629 226.56" id="h881418573" class="r"></path></g><g class="hrs"></g><g class="ts"><svg width="165.38" height="175" x="54.45" y="213.33" id="h1238333411" class="t"><rect height="40" width="165.38" class="th"></rect><text x="13" y="25" class="tht">movie</text><rect height="135" width="165.38" class="t-bg"></rect><text x="13" y="61" class="tf fk">Title_ID<tspan x="152.38" class="ty">varchar(10)</tspan></text><text x="13" y="86" class="tf">Titles<tspan x="152.38" class="ty">varchar(255)</tspan></text><text x="13" y="111" class="tf">Categories<tspan x="152.38" class="ty">varchar(20)</tspan></text><text x="13" y="136" class="tf">Date_Added<tspan x="152.38" class="ty">date</tspan></text><text x="13" y="161" class="tf">Ratings<tspan x="152.38" class="ty">varchar(10)</tspan></text></svg><svg width="165.38" height="150" x="332.22" y="328.89" id="h311790747" class="t"><rect height="40" width="165.38" class="th"></rect><text x="13" y="25" class="tht">titles</text><rect height="110" width="165.38" class="t-bg"></rect><text x="13" y="61" class="tf fk">Show_ID<tspan x="152.38" class="ty">varchar(10)</tspan></text><text x="13" y="86" class="tf fk">Titles_ID<tspan x="152.38" class="ty">varchar(10)</tspan></text><text x="13" y="111" class="tf">Categories<tspan x="152.38" class="ty">varchar(20)</tspan></text><text x="13" y="136" class="tf">Titles<tspan x="152.38" class="ty">varchar(255)</tspan></text></svg><svg width="176.04" height="200" x="635" y="175.56" id="h978844726" class="t"><rect height="40" width="176.04" class="th"></rect><text x="13" y="25" class="tht">netflix</text><rect height="160" width="176.04" class="t-bg"></rect><text x="13" y="61" class="tf pk">Show_ID<tspan x="163.04" class="ty">varchar(10)</tspan></text><path d="M7,14A2,2 0 0,1 5,12A2,2 0 0,1 7,10A2,2 0 0,1 9,12A2,2 0 0,1 7,14M12.65,10C11.83,7.67 9.61,6 7, 6A6, 6 0 0, 0 1, 12A6, 6 0 0, 0 7, 18C9.61, 18 11.83, 16.33 12.65, 14H17V18H21V14H23V10H12.65Z" class="i pk" transform="translate(81.68648437499999, 48) scale(0.65)"></path><text x="13" y="86" class="tf">Titles<tspan x="163.04" class="ty">varchar(255)</tspan></text><text x="13" y="111" class="tf">Categories<tspan x="163.04" class="ty">varchar(20)</tspan></text><text x="13" y="136" class="tf">Date_Added<tspan x="163.04" class="ty">date</tspan></text><text x="13" y="161" class="tf">Ratings<tspan x="163.04" class="ty">varchar(10)</tspan></text><text x="13" y="186" class="tf">Directors<tspan x="163.04" class="ty">varchar(255)</tspan></text></svg><svg width="176.04" height="225" x="300" y="5.56" id="h3358164272" class="t"><rect height="40" width="176.04" class="th"></rect><text x="13" y="25" class="tht">director</text><rect height="185" width="176.04" class="t-bg"></rect><text x="13" y="61" class="tf pk">IDs<tspan x="163.04" class="ty">int</tspan></text><path d="M7,14A2,2 0 0,1 5,12A2,2 0 0,1 7,10A2,2 0 0,1 9,12A2,2 0 0,1 7,14M12.65,10C11.83,7.67 9.61,6 7, 6A6, 6 0 0, 0 1, 12A6, 6 0 0, 0 7, 18C9.61, 18 11.83, 16.33 12.65, 14H17V18H21V14H23V10H12.65Z" class="i pk" transform="translate(130.366171875, 48) scale(0.65)"></path><text x="13" y="86" class="tf">Titles<tspan x="163.04" class="ty">varchar(255)</tspan></text><text x="13" y="111" class="tf">First_Name<tspan x="163.04" class="ty">varchar(255)</tspan></text><text x="13" y="136" class="tf">Last_Name<tspan x="163.04" class="ty">varchar(255)</tspan></text><text x="13" y="161" class="tf pk">Show_ID<tspan x="163.04" class="ty">varchar(10)</tspan></text><path d="M7,14A2,2 0 0,1 5,12A2,2 0 0,1 7,10A2,2 0 0,1 9,12A2,2 0 0,1 7,14M12.65,10C11.83,7.67 9.61,6 7, 6A6, 6 0 0, 0 1, 12A6, 6 0 0, 0 7, 18C9.61, 18 11.83, 16.33 12.65, 14H17V18H21V14H23V10H12.65Z" class="i pk" transform="translate(81.68648437499999, 148) scale(0.65)"></path><text x="13" y="186" class="tf">Categories<tspan x="163.04" class="ty">varchar(20)</tspan></text><text x="13" y="211" class="tf">Date_Added<tspan x="163.04" class="ty">date</tspan></text></svg></g></g><text class="qdbd-link" x="10" y="20">www.quickdatabasediagrams.com</text></svg>